{"title":"Beneath.2007.DvdRip.x264.LKRG","uid":5921364,"size":726199862,"categoryP":"video","categoryS":"movies","magnet":"?xt=urn:btih:9b39439986233c1ed1e1803567b3dbe2c1c0b91b&amp;dn=Beneath.2007.DvdRip.x264.LKRG&amp;tr=udp%3A%2F%2Ftracker.openbittorrent.com%3A80&amp;tr=udp%3A%2F%2Fopen.demonii.com%3A1337&amp;tr=udp%3A%2F%2Ftracker.coppersurfer.tk%3A6969&amp;tr=udp%3A%2F%2Fexodus.desync.com%3A6969","seeders":0,"leechers":1,"uploader":"deffjam555","files":51,"time":1288433164,"description":"cover\n\nResponsible for the terrible car accident that left her older sister disfigured, Christy (Nora Zehetner) is wracked with guilt for years after the tragedy. Returning to her hometown, she's haunted by frightening premonitions as well as nightmares of the crash. Are her visions merely the product of remorse, or is something more sinister at work? Matthew Settle also stars in this imaginative thriller.\n\nVideo\nID : 1\nFormat : AVC\nFormat/Info : Advanced Video Codec\nFormat profile : &lt;a class=&quot;__cf_email__&quot; href=&quot;/cdn-cgi/l/email-protection&quot; data-cfemail=&quot;f5b8949c9bb5b9c6dbc5&quot;&gt;[email&amp;#160;protected]&lt;/a&gt;&lt;script cf-hash='f9e31' type=&quot;text/javascript&quot;&gt;\n/* &lt;![CDATA[ */!function(){try{var t=&quot;currentScript&quot;in document?document.currentScript:function(){for(var t=document.getElementsByTagName(&quot;script&quot;),e=t.length;e--;)if(t[e].getAttribute(&quot;cf-hash&quot;))return t[e]}();if(t&amp;&amp;t.previousSibling){var e,r,n,i,c=t.previousSibling,a=c.getAttribute(&quot;data-cfemail&quot;);if(a){for(e=&quot;&quot;,r=parseInt(a.substr(0,2),16),n=2;a.length-n;n+=2)i=parseInt(a.substr(n,2),16)^r,e+=String.fromCharCode(i);e=document.createTextNode(e),c.parentNode.replaceChild(e,c)}}}catch(u){}}();/* ]]&gt; */&lt;/script&gt;\nFormat settings, CABAC : Yes\nFormat settings, ReFrames : 2 frames\nFormat settings, GOP : M=1, N=12\nCodec ID : avc1\nCodec ID/Info : Advanced Video Coding\nDuration : 1h 21mn\nBit rate mode : Variable\nBit rate : 1 031 Kbps\nWidth : 718 pixels\nHeight : 480 pixels\nDisplay aspect ratio : 16:9\nFrame rate mode : Variable\nFrame rate : 23.976 fps\nMinimum frame rate : 11.989 fps\nMaximum frame rate : 29.970 fps\nColor space : YUV\nChroma subsampling : 4:2:0\nBit depth : 8 bits\nScan type : Progressive\nBits/(Pixel*Frame) : 0.125\nStream size : 598 MiB (86%)\nWriting library : x264 core 79\n\nAudio\nID : 2\nFormat : AAC\nFormat/Info : Advanced Audio Codec\nFormat version : Version 4\nFormat profile : LC\nFormat settings, SBR : No\nCodec ID : 40\nDuration : 1h 22mn\nBit rate mode : Variable\nBit rate : 160 Kbps\nMaximum bit rate : 241 Kbps\nChannel(s) : 2 channels\nChannel positions : Front: L R\nSampling rate : 48.0 KHz\nStream size : 93.6 MiB (13%)\nLanguage : English\nscreens\n","torrent":{"xt":"urn:btih:9b39439986233c1ed1e1803567b3dbe2c1c0b91b","amp;dn":"Beneath.2007.DvdRip.x264.LKRG","amp;tr":["udp%3A%2F%2Ftracker.openbittorrent.com%3A80","udp%3A%2F%2Fopen.demonii.com%3A1337","udp%3A%2F%2Ftracker.coppersurfer.tk%3A6969","udp%3A%2F%2Fexodus.desync.com%3A6969"],"infoHash":"9b39439986233c1ed1e1803567b3dbe2c1c0b91b","infoHashBuffer":{"type":"Buffer","data":[155,57,67,153,134,35,60,30,209,225,128,53,103,179,219,226,193,192,185,27]},"announce":[],"urlList":[]}}